<svg width="275" height="60" viewBox="0 0 275 60" fill="none" xmlns="http://www.w3.org/2000/svg">
<path fill-rule="evenodd" clip-rule="evenodd" d="M33.1426 0.165641C20.5121 -1.16481 8.41249 5.60243 2.93468 17.0607C-2.54314 28.519 -0.212 42.1851 8.7546 51.1795C17.7212 60.1739 31.38 62.5473 42.8552 57.1049C54.3304 51.6626 61.135 39.5839 59.8436 26.9494C58.4141 12.8224 47.265 1.63879 33.1426 0.165641ZM32.1705 45.8753C25.3735 46.7872 18.7512 43.2665 15.7056 37.1219C12.6601 30.9774 13.8686 23.5753 18.7103 18.7185C23.5519 13.8617 30.9502 12.63 37.1042 15.6563C43.2582 18.6826 46.7996 25.2939 45.909 32.0937C44.9719 39.2653 39.3391 44.9158 32.1705 45.8753ZM75.8889 1.35244C73.7818 1.35749 71.789 2.31151 70.4638 3.94973C69.1385 5.58794 68.6218 7.736 69.057 9.79771C69.7153 13.0958 72.7959 15.3493 76.1517 15.3493H95.6266L65.3193 55.457C64.8621 56.0609 64.7855 56.8713 65.1214 57.5502C65.4573 58.2291 66.148 58.6598 66.9055 58.6627H114.445C117.799 58.6627 120.882 56.4098 121.54 53.1111C121.975 51.0498 121.459 48.902 120.135 47.2637C118.81 45.6254 116.818 44.6708 114.711 44.6647H90.9825L121.267 4.58824C121.728 3.97846 121.805 3.16008 121.466 2.47471C121.127 1.78934 120.429 1.35479 119.664 1.35244H75.8889ZM265.856 1.51389C262.613 2.28489 260.342 5.20601 260.395 8.53839V31.8427L222.633 1.79261C222.029 1.31291 221.203 1.22185 220.509 1.55832C219.815 1.89479 219.375 2.5993 219.377 3.37085V51.4893C219.324 54.8217 221.595 57.743 224.837 58.5138C226.907 58.9693 229.072 58.4609 230.723 57.1317C232.375 55.8025 233.333 53.7959 233.33 51.6762V28.1702L271.093 58.2209C271.697 58.7003 272.522 58.7913 273.216 58.4549C273.91 58.1186 274.35 57.4144 274.348 56.6432V8.34919C274.351 6.23001 273.392 4.2242 271.741 2.8955C270.09 1.56681 267.925 1.05867 265.856 1.51389ZM167.534 14.0096C183.506 14.0096 195.441 22.4503 195.441 30.0005C195.441 37.5507 183.506 45.9915 167.534 45.9915C151.562 45.9915 139.628 37.5507 139.628 30.0005C139.628 22.4503 151.562 14.0096 167.534 14.0096ZM167.534 0.0132548C144.415 0.0132548 125.674 13.4391 125.674 30.0005C125.674 46.5619 144.415 59.9878 167.534 59.9878C190.653 59.9878 209.394 46.5619 209.394 30.0005C209.394 13.4391 190.653 0.0132548 167.534 0.0132548Z" fill="white"/>
</svg>
