<svg width="380" height="61" viewBox="0 0 380 61" fill="none" xmlns="http://www.w3.org/2000/svg">
<path d="M177.031 18.6261L185.261 12.5601H157.713V48.9909H185.261V42.9249H165.576V33.5973H182.367V27.5336H165.576V18.6261H177.031Z" fill="white"/>
<path d="M135.552 42.9264H127.353V32.8275H135.552C140.541 32.8275 142.866 34.5168 142.866 37.8769C142.866 41.3196 140.404 42.9264 135.552 42.9264ZM136.929 26.7615H127.353V18.6275H142.628L150.858 12.5522H119.49V48.9923H135.907C145.113 48.9923 150.394 44.8199 150.394 37.5488C150.394 30.5921 145.609 26.7615 136.92 26.7615" fill="white"/>
<path d="M207.401 32.6073H200.431V18.6275H207.401C212.451 18.6275 215.205 21.1086 215.205 25.6162C215.205 30.1239 212.433 32.6073 207.401 32.6073ZM207.567 12.5522H192.57V48.9923H200.431V38.6641H207.567C217.138 38.6641 223.084 33.6309 223.084 25.5818C223.084 17.5327 217.14 12.5522 207.567 12.5522Z" fill="white"/>
<path d="M105.989 41.1037C103.905 42.2323 101.571 42.8171 99.202 42.8044C92.1123 42.8044 86.969 37.755 86.969 30.7755C86.969 23.796 92.1123 18.749 99.202 18.749C101.764 18.7107 104.272 19.4949 106.356 20.9867L111.995 16.8302L111.623 16.5043C108.325 13.6124 103.925 12.093 98.8966 12.093C93.4388 12.093 88.4884 13.9291 84.9538 17.2732C81.4191 20.6172 79.4453 25.3613 79.4453 30.5851C79.4453 35.8087 81.3986 40.6309 84.94 44.092C88.4813 47.553 93.432 49.4787 98.8531 49.4787C104.52 49.4787 109.47 47.5027 112.824 43.9083L107.733 40.1513L105.989 41.1037Z" fill="white"/>
<path d="M240.596 15.2423C241.638 14.4773 243.183 13.7482 245.23 13.0551C247.277 12.3619 249.76 12.0146 252.68 12.0131C254.552 11.9958 256.42 12.1797 258.253 12.5616C259.77 12.8669 261.223 13.4305 262.549 14.2279C263.694 14.9226 264.643 15.8993 265.303 17.0647C265.946 18.2092 266.267 19.5802 266.267 21.1776C266.267 25.3808 264.115 28.2452 259.809 29.7705C265.366 30.6029 268.144 33.4496 268.143 38.3108C268.152 39.8285 267.833 41.3303 267.206 42.7129C266.566 44.1013 265.601 45.3153 264.392 46.2521C262.995 47.3181 261.417 48.1215 259.733 48.623C257.648 49.2441 255.481 49.5422 253.306 49.5064C251.744 49.5162 250.184 49.3858 248.645 49.1164C247.316 48.8865 246.011 48.5386 244.743 48.0766C243.689 47.696 242.676 47.2069 241.723 46.617C240.979 46.169 240.304 45.6164 239.717 44.9759V36.9566C240.297 37.925 241.016 38.8028 241.851 39.5618C242.76 40.3887 243.777 41.0891 244.874 41.6433C246.104 42.2636 247.407 42.7264 248.753 43.0204C250.283 43.3599 251.847 43.5254 253.414 43.5141C254.467 43.5208 255.517 43.3983 256.541 43.1489C257.436 42.939 258.29 42.5782 259.065 42.0818C259.755 41.6365 260.334 41.0398 260.759 40.3376C261.188 39.5945 261.404 38.7481 261.383 37.8909C261.383 36.2598 260.75 35.0618 259.483 34.2965C258.216 33.5316 256.159 33.1491 253.311 33.1491H247.782V27.7921H253.252C254.256 27.8159 255.258 27.6845 256.221 27.402C256.933 27.1904 257.59 26.8262 258.147 26.3348C258.62 25.9037 258.986 25.3686 259.217 24.7718C259.446 24.156 259.56 23.5033 259.554 22.8462C259.573 22.0923 259.393 21.3466 259.033 20.6841C258.682 20.0734 258.18 19.5629 257.575 19.2015C256.897 18.7973 256.158 18.5065 255.386 18.3408C254.497 18.1432 253.59 18.0302 252.68 18.0034C251.353 17.9584 250.027 18.1131 248.746 18.4624C247.56 18.7893 246.421 19.2708 245.361 19.8946C244.371 20.4817 243.447 21.1743 242.607 21.9602C241.848 22.6586 241.175 23.4453 240.603 24.3036L240.596 15.2423Z" fill="white"/>
<path d="M274.551 48.9912V12.5398H290.388C298.582 12.5398 302.677 15.5602 302.677 21.601C302.677 23.6851 302.244 25.4209 301.376 26.8088C300.511 28.1966 299.136 29.2591 297.259 29.9968C299.518 30.3809 301.168 31.2743 302.207 32.6774C303.248 34.0805 303.77 35.9816 303.77 38.3809C303.77 40.2568 303.44 41.8712 302.783 43.2237C302.139 44.5515 301.16 45.6887 299.943 46.5219C298.582 47.427 297.062 48.0634 295.463 48.397C293.502 48.817 291.5 49.0172 289.496 48.9937L274.551 48.9912ZM289.447 27.9539C291.53 27.9539 293.172 27.5203 294.37 26.6527C295.569 25.7851 296.166 24.5702 296.166 23.008C296.166 21.5483 295.655 20.4374 294.63 19.6754C293.605 18.9134 291.928 18.5309 289.604 18.5278H281.062V27.9539H289.447ZM289.907 43.0032C292.404 43.0032 294.24 42.5956 295.414 41.78C296.588 40.9644 297.178 39.6715 297.183 37.9013C297.183 36.1293 296.559 34.8793 295.309 34.1508C294.059 33.4226 292.287 33.0585 289.996 33.0585H281.045V43.0032H289.907Z" fill="white"/>
<path d="M318.179 43.265C318.833 43.2774 319.48 43.1192 320.053 42.806C320.608 42.4906 321.092 41.9176 321.511 41.0869L305.576 12.5398H313.129L324.855 33.6826L334.436 12.5398H341.26L327.876 41.3899C327.27 42.7659 326.537 44.0822 325.685 45.3213C325.058 46.237 324.303 47.0606 323.448 47.768C322.745 48.3439 321.936 48.778 321.068 49.0464C320.213 49.2952 319.328 49.418 318.438 49.4113C317.64 49.4153 316.845 49.3274 316.069 49.1497C315.436 49.0136 314.816 48.8224 314.219 48.5781V41.8075C314.733 42.2766 315.336 42.6401 315.99 42.8771C316.691 43.1379 317.432 43.2699 318.179 43.2672" fill="white"/>
<path d="M352.139 48.9911H345.631V12.5398H352.139V27.8506H357.609L369.327 12.5398H377.244L363.338 29.882L379.484 48.9911H371.15L357.922 33.2146H352.139V48.9911Z" fill="white"/>
<path d="M54.13 12.3416C55.5458 14.1966 56.7428 16.209 57.6965 18.3388L30.5796 38.5981L19.2461 31.3982V22.7363L30.5796 29.9362L54.13 12.3416Z" fill="white"/>
<path d="M7.67842 30.7901C7.67842 30.4022 7.67842 30.0143 7.70596 29.6426L0.8297 29.2913C0.806749 29.7871 0.792978 30.2897 0.792978 30.7969C0.789937 34.7548 1.55861 38.6754 3.05599 42.3393C4.54761 45.9906 6.74201 49.3134 9.51452 52.119L14.3871 47.1843C12.2533 45.0289 10.5642 42.4749 9.41584 39.6676C8.26451 36.8498 7.67434 33.8343 7.67842 30.7901Z" fill="white"/>
<path d="M30.5801 7.5828C30.9634 7.5828 31.3443 7.59657 31.7276 7.61723L32.0674 0.653763C31.5791 0.627752 31.0835 0.614746 30.5801 0.614746C26.6603 0.615427 22.78 1.39742 19.1659 2.91501C15.5518 4.4326 12.2764 6.65534 9.53125 9.45333L14.4016 14.3856C16.5156 12.2271 19.038 10.5107 21.8218 9.33628C24.5949 8.173 27.5729 7.5768 30.5801 7.5828Z" fill="white"/>
<path d="M30.5665 53.9881C30.1832 53.9881 29.8024 53.9881 29.4191 53.9583L29.0771 60.9172C29.5697 60.9415 30.0656 60.9545 30.5644 60.9561C34.4763 60.9588 38.3493 60.1784 41.9551 58.6609C45.5692 57.1375 48.8455 54.9126 51.5949 52.1151L46.7451 47.1829C44.6357 49.3352 42.1187 51.0456 39.341 52.2141C36.5629 53.3824 33.5802 53.9856 30.5665 53.9881Z" fill="white"/>
<path d="M43.4511 11.6315L49.2392 7.30742C43.9699 2.97469 37.3581 0.608751 30.5361 0.614758V7.58282C35.1541 7.57916 39.6617 8.99231 43.4511 11.6315Z" fill="white"/>
<path d="M60.325 30.7837C60.3304 28.9714 60.177 27.162 59.8659 25.3765L53.4578 30.164V30.7837C53.4602 34.0227 52.7905 37.227 51.4907 40.1939C50.1961 43.1496 48.297 45.8013 45.916 47.9791L50.5383 53.157C53.6334 50.3224 56.1009 46.8717 57.7817 43.026C59.4667 39.1652 60.3328 34.9965 60.325 30.7837Z" fill="white"/>
<path d="M30.5621 53.9904C27.361 53.9912 24.1964 53.3111 21.2781 51.996C18.3479 50.6748 15.7295 48.75 13.594 46.3477L8.4873 51.0297C11.2665 54.1535 14.6732 56.6559 18.485 58.3741C22.2819 60.0825 26.3985 60.9641 30.5621 60.9609V53.9904Z" fill="white"/>
<path d="M15.2134 13.5962L10.5933 8.42529C7.49812 11.2574 5.02998 14.706 3.34749 18.5491C1.65736 22.409 0.78749 26.5778 0.792995 30.7915H7.67841C7.67603 27.5525 8.34581 24.3482 9.64537 21.3813C10.9381 18.4264 12.8347 15.7746 15.2134 13.5962Z" fill="white"/>
</svg>
