<svg width="379" height="42" viewBox="0 0 379 42" fill="none" xmlns="http://www.w3.org/2000/svg">
<path fill-rule="evenodd" clip-rule="evenodd" d="M340.233 27.816C337.861 31.9178 332.884 35.153 325.823 35.153C316.506 34.9797 311.702 28.7981 311.702 20.9411C311.702 12.4486 317.142 6.72922 325.997 6.72922C332.073 6.72922 336.993 10.1955 339.423 13.7774V3.72508C337.05 2.04969 332.363 0.0854492 325.997 0.0854492C312.57 0.0854492 303.889 8.69346 303.889 20.8833C303.889 33.9398 312.686 41.739 325.881 41.7967C332.884 41.7967 338.208 39.1392 340.233 36.7128V27.816ZM184.142 23.6564H190.566L205.266 41.1613H214.526L196.585 19.959L212.037 0.720939H203.24L190.219 17.7059H184.142V0.720939H176.908V41.1613H184.142V23.6564ZM247.732 41.1613H254.967V0.720939H225.683L225.278 9.09787C224.12 32.3799 220.822 34.1131 218.044 34.1131C217.523 34.1131 216.886 34.0553 216.307 33.8242V41.1035C217.176 41.5079 218.275 41.6812 219.548 41.6812C225.451 41.6812 230.602 38.6771 232.223 9.27118L232.338 7.36471H247.732V41.1613ZM260.665 41.1613L277.101 0.720939H285.319L301.986 41.1613H294.289L290.411 31.5711H271.834L268.015 41.1613H260.665ZM287.749 24.9274L281.094 8.34683L274.438 24.9274H287.749ZM364.537 35.153C371.597 35.153 376.574 31.9178 378.947 27.816V36.7128C376.922 39.1392 371.597 41.7967 364.595 41.7967C351.4 41.739 342.603 33.9398 342.603 20.8833C342.603 8.69346 351.284 0.0854492 364.71 0.0854492C371.076 0.0854492 375.764 2.04969 378.137 3.72508V13.7774C375.706 10.1955 370.787 6.72922 364.71 6.72922C355.856 6.72922 350.416 12.4486 350.416 20.9411C350.416 28.7981 355.219 34.9797 364.537 35.153ZM29.488 32.384C27.1932 33.627 24.6223 34.2711 22.0127 34.2571C14.2038 34.2571 8.53878 28.6955 8.53878 21.0081C8.53878 13.3206 14.2038 7.76161 22.0127 7.76161C24.8351 7.71942 27.5969 8.58326 29.8923 10.2264L36.1034 5.64821L35.694 5.28926C32.0612 2.10403 27.2153 0.430511 21.6763 0.430511C15.6648 0.430511 10.2123 2.45289 6.31915 6.13612C2.426 9.81935 0.251953 15.0446 0.251953 20.7984C0.251953 26.5518 2.40336 31.8632 6.30396 35.6753C10.2046 39.4874 15.6574 41.6085 21.6284 41.6085C27.8699 41.6085 33.3227 39.432 37.0159 35.473L31.4091 31.3349L29.488 32.384ZM62.0144 34.4272H52.9845V23.304H62.0144C67.5102 23.304 70.071 25.1646 70.071 28.8656C70.071 32.6575 67.3586 34.4272 62.0144 34.4272ZM63.5211 16.6226H52.9845V7.66354H69.8082L78.8733 0.972015H44.3238V41.1085H62.4062C72.546 41.1085 78.3629 36.5128 78.3629 28.5042C78.3629 20.8418 73.0921 16.6226 63.5211 16.6226ZM107.714 7.66366L116.779 0.982269H86.4361V41.1085H116.779V34.4273H95.0969V24.1535H113.591V17.4747H95.0969V7.66366H107.714ZM133.494 23.0614H141.172C146.713 23.0614 149.767 20.3261 149.767 15.3612C149.767 10.3963 146.733 7.66354 141.172 7.66354H133.494V23.0614ZM124.836 0.972015H141.354C151.898 0.972015 158.445 6.45769 158.445 15.3233C158.445 24.1888 151.895 29.7326 141.354 29.7326H133.494V41.1085H124.836V0.972015Z" fill="white"/>
</svg>
