<svg width="379" height="39" viewBox="0 0 379 39" fill="none" xmlns="http://www.w3.org/2000/svg">
<path d="M301.007 0.270508V3.77879C314.382 4.07114 322.349 9.69901 322.349 19.6391C322.349 29.5793 314.382 34.7686 301.007 35.0609V38.5692H290.409V35.0609C277.107 34.7686 269.14 29.5793 269.14 19.6391C269.14 9.69901 277.107 4.07114 290.409 3.77879V0.270508H301.007ZM357.607 0.270508V3.77879C370.982 4.07114 378.949 9.69901 378.949 19.6391C378.949 29.5793 370.982 34.7686 357.607 35.0609V38.5692H347.009V35.0609C333.707 34.7686 325.74 29.5793 325.74 19.6391C325.74 9.69901 333.707 4.07114 347.009 3.77879V0.270508H357.607ZM242.981 1.29376C257.161 1.29376 265.712 9.33356 265.712 19.7122C265.712 30.0909 257.161 38.1307 242.981 38.1307C228.729 38.1307 220.177 30.0909 220.177 19.7122C220.177 9.33356 228.729 1.29376 242.981 1.29376ZM41.3281 2.24392V11.5262H26.2717V37.0344H15.3083V11.5262H0.251953V2.24392H41.3281ZM56.3136 2.24392V22.4896L74.5859 2.24392H83.9413V37.0344H73.3434V16.7887L55.0711 37.0344H45.7156V2.24392H56.3136ZM102.566 2.24392V14.9614H119.595V2.24392H130.193V37.0344H119.595V24.0976H102.566V37.0344H91.9676V2.24392H102.566ZM148.817 2.24392V11.5993H159.707C162.339 11.5993 165.116 11.6724 167.455 12.5495C172.352 14.3767 175.422 18.3966 175.422 24.1707C175.422 30.2371 171.84 34.6955 166.359 36.2304C164.312 36.8151 162.119 37.0344 159.707 37.0344H138.219V2.24392H148.817ZM191.5 2.24392V15.3269H194.424L207.215 2.24392H220.517L203.561 18.9082L221.175 37.0344H207.069L194.424 23.8783H191.5V37.0344H180.902V2.24392H191.5ZM242.981 9.84519C235.892 9.84519 231.36 14.0113 231.36 19.7122C231.36 25.4132 235.892 29.6523 242.981 29.6523C249.998 29.6523 254.602 25.4132 254.602 19.7122C254.602 14.0113 249.998 9.84519 242.981 9.84519ZM158.316 19.7858L148.817 19.7853V28.6291L158.262 28.6289C159.874 28.6265 160.96 28.5926 162.046 28.1175C163.727 27.3866 164.751 25.8517 164.751 24.0245C164.751 22.2703 163.727 20.8086 161.973 20.2238C160.731 19.7853 159.342 19.7853 157.88 19.7853L158.316 19.7858ZM290.409 11.307C283.1 11.5993 279.884 14.9614 279.884 19.6391C279.884 24.3168 283.1 27.3135 290.409 27.6059V11.307ZM301.007 11.307V27.6059C308.389 27.3135 311.532 24.3168 311.532 19.6391C311.532 14.9614 308.389 11.5993 301.007 11.307ZM347.009 11.307C339.7 11.5993 336.484 14.9614 336.484 19.6391C336.484 24.3168 339.7 27.3135 347.009 27.6059V11.307ZM357.607 11.307V27.6059C364.989 27.3135 368.132 24.3168 368.132 19.6391C368.132 14.9614 364.989 11.5993 357.607 11.307Z" fill="white"/>
</svg>
