<svg width="245" height="71" viewBox="0 0 245 71" fill="none" xmlns="http://www.w3.org/2000/svg">
<path fill-rule="evenodd" clip-rule="evenodd" d="M30.4151 8.30947H25.708C17.0782 8.30947 12.5455 12.6395 12.5455 19.0474C12.5455 26.3217 15.6836 29.6988 22.1342 34.0289L27.4511 37.5793L12.1098 60.3541H0.69043L14.4631 40.0039C6.53076 34.3749 2.085 28.9196 2.085 19.6536C2.085 8.04997 10.1918 0.169434 25.6208 0.169434H40.9625V60.3541H30.4151V8.30947Z" fill="white"/>
<path fill-rule="evenodd" clip-rule="evenodd" d="M116.106 52.2123H101.461C104.338 45.6311 105.122 33.7672 105.122 26.2334V24.9345H116.106V52.2123ZM126.478 16.7944H96.2313V20.5183C96.2313 31.1693 95.5338 44.9383 91.8727 52.2123H88.6475V70.3114H98.2361V60.3527H121.51V70.3114H131.099V52.2123H126.478V16.7944Z" fill="white"/>
<path fill-rule="evenodd" clip-rule="evenodd" d="M73.9144 34.0271H60.0546V16.7944H49.6816V60.3523H60.0546V42.1671H73.9144V60.3523H84.2874V16.7944H73.9144V34.0271Z" fill="white"/>
<path fill-rule="evenodd" clip-rule="evenodd" d="M234.493 24.0702C238.502 24.0702 242.425 25.4556 244.517 26.7546V18.0083C242.338 16.7959 238.502 15.9302 233.36 15.9302C220.11 15.9302 213.224 25.3691 213.224 38.6181C213.224 53.1666 219.935 61.2202 233.795 61.2202C238.59 61.2202 241.989 60.3541 244.517 58.5358V50.1355C241.902 51.9542 238.764 53.0798 234.405 53.0798C226.996 53.0798 223.945 47.3647 223.945 38.3586C223.945 28.9196 227.693 24.0702 234.493 24.0702Z" fill="white"/>
<path fill-rule="evenodd" clip-rule="evenodd" d="M211.83 16.7944H201.37L186.726 36.8848V16.7944H176.353V60.3526H186.726V38.963L202.067 60.3526H213.835L197.186 36.8848L211.83 16.7944Z" fill="white"/>
<path fill-rule="evenodd" clip-rule="evenodd" d="M158.816 34.6347H144.346C144.608 27.7071 147.136 24.0701 152.104 24.0701C157.247 24.0701 158.816 28.3133 158.816 33.7686V34.6347ZM152.279 15.9297C139.639 15.9297 133.625 25.542 133.625 38.7045C133.625 53.8594 141.121 61.2202 154.371 61.2202C160.995 61.2202 165.877 59.4881 168.928 57.4095V49.01C165.703 51.1746 160.298 53.0798 155.242 53.0798C147.659 53.0798 144.782 49.5297 144.346 42.2554H169.364V36.7997C169.364 21.6452 162.652 15.9297 152.279 15.9297Z" fill="white"/>
</svg>
